<mxfile host="app.diagrams.net" modified="2024-05-08T23:11:43.150Z" agent="Mozilla/5.0 (Windows NT 10.0; Win64; x64) AppleWebKit/537.36 (KHTML, like Gecko) Chrome/124.0.0.0 Safari/537.36" etag="wO0cV0bhSoUGhbVhQAqg" version="24.3.1" type="github">
  <diagram id="C5RBs43oDa-KdzZeNtuy" name="Page-1">
    <mxGraphModel dx="2117" dy="1691" grid="1" gridSize="10" guides="1" tooltips="1" connect="1" arrows="1" fold="1" page="1" pageScale="1" pageWidth="827" pageHeight="1169" math="0" shadow="0">
      <root>
        <mxCell id="WIyWlLk6GJQsqaUBKTNV-0" />
        <mxCell id="WIyWlLk6GJQsqaUBKTNV-1" parent="WIyWlLk6GJQsqaUBKTNV-0" />
        <mxCell id="dQuYyNFEkMx4EJl-h9f4-1" value="berçario" style="whiteSpace=wrap;html=1;align=center;" vertex="1" parent="WIyWlLk6GJQsqaUBKTNV-1">
          <mxGeometry x="10" y="200" width="140" height="70" as="geometry" />
        </mxCell>
        <mxCell id="dQuYyNFEkMx4EJl-h9f4-7" value="bebês" style="whiteSpace=wrap;html=1;align=center;" vertex="1" parent="WIyWlLk6GJQsqaUBKTNV-1">
          <mxGeometry x="270" y="200" width="130" height="60" as="geometry" />
        </mxCell>
        <mxCell id="dQuYyNFEkMx4EJl-h9f4-8" value="data_nascimento" style="ellipse;whiteSpace=wrap;html=1;align=center;" vertex="1" parent="WIyWlLk6GJQsqaUBKTNV-1">
          <mxGeometry x="480" y="270" width="114" height="50" as="geometry" />
        </mxCell>
        <mxCell id="dQuYyNFEkMx4EJl-h9f4-9" value="nome" style="ellipse;whiteSpace=wrap;html=1;align=center;" vertex="1" parent="WIyWlLk6GJQsqaUBKTNV-1">
          <mxGeometry x="414" y="300" width="55" height="40" as="geometry" />
        </mxCell>
        <mxCell id="dQuYyNFEkMx4EJl-h9f4-10" value="peso_nascimento" style="ellipse;whiteSpace=wrap;html=1;align=center;" vertex="1" parent="WIyWlLk6GJQsqaUBKTNV-1">
          <mxGeometry x="410" y="150" width="114" height="40" as="geometry" />
        </mxCell>
        <mxCell id="dQuYyNFEkMx4EJl-h9f4-11" value="altura" style="ellipse;whiteSpace=wrap;html=1;align=center;" vertex="1" parent="WIyWlLk6GJQsqaUBKTNV-1">
          <mxGeometry x="430" y="215" width="60" height="30" as="geometry" />
        </mxCell>
        <mxCell id="dQuYyNFEkMx4EJl-h9f4-12" value="mãe do bebê" style="ellipse;whiteSpace=wrap;html=1;align=center;" vertex="1" parent="WIyWlLk6GJQsqaUBKTNV-1">
          <mxGeometry x="295" y="130" width="80" height="40" as="geometry" />
        </mxCell>
        <mxCell id="dQuYyNFEkMx4EJl-h9f4-13" value="medico" style="ellipse;whiteSpace=wrap;html=1;align=center;" vertex="1" parent="WIyWlLk6GJQsqaUBKTNV-1">
          <mxGeometry x="315" y="310" width="60" height="30" as="geometry" />
        </mxCell>
        <mxCell id="dQuYyNFEkMx4EJl-h9f4-17" value="" style="endArrow=none;html=1;rounded=0;entryX=0.5;entryY=1;entryDx=0;entryDy=0;exitX=0.5;exitY=0;exitDx=0;exitDy=0;" edge="1" parent="WIyWlLk6GJQsqaUBKTNV-1" source="dQuYyNFEkMx4EJl-h9f4-7" target="dQuYyNFEkMx4EJl-h9f4-12">
          <mxGeometry width="50" height="50" relative="1" as="geometry">
            <mxPoint x="360" y="210" as="sourcePoint" />
            <mxPoint x="410" y="160" as="targetPoint" />
            <Array as="points">
              <mxPoint x="335" y="190" />
            </Array>
          </mxGeometry>
        </mxCell>
        <mxCell id="dQuYyNFEkMx4EJl-h9f4-19" value="" style="endArrow=none;html=1;rounded=0;entryX=0.108;entryY=0.777;entryDx=0;entryDy=0;exitX=1;exitY=0;exitDx=0;exitDy=0;entryPerimeter=0;" edge="1" parent="WIyWlLk6GJQsqaUBKTNV-1" source="dQuYyNFEkMx4EJl-h9f4-7" target="dQuYyNFEkMx4EJl-h9f4-10">
          <mxGeometry width="50" height="50" relative="1" as="geometry">
            <mxPoint x="410" y="210" as="sourcePoint" />
            <mxPoint x="410" y="180" as="targetPoint" />
            <Array as="points">
              <mxPoint x="410" y="200" />
            </Array>
          </mxGeometry>
        </mxCell>
        <mxCell id="dQuYyNFEkMx4EJl-h9f4-20" value="" style="endArrow=none;html=1;rounded=0;entryX=0;entryY=0.5;entryDx=0;entryDy=0;" edge="1" parent="WIyWlLk6GJQsqaUBKTNV-1" target="dQuYyNFEkMx4EJl-h9f4-11">
          <mxGeometry width="50" height="50" relative="1" as="geometry">
            <mxPoint x="400" y="230" as="sourcePoint" />
            <mxPoint x="365" y="200" as="targetPoint" />
            <Array as="points" />
          </mxGeometry>
        </mxCell>
        <mxCell id="dQuYyNFEkMx4EJl-h9f4-21" value="" style="endArrow=none;html=1;rounded=0;entryX=0.211;entryY=0.133;entryDx=0;entryDy=0;exitX=1.01;exitY=0.919;exitDx=0;exitDy=0;entryPerimeter=0;exitPerimeter=0;" edge="1" parent="WIyWlLk6GJQsqaUBKTNV-1" source="dQuYyNFEkMx4EJl-h9f4-7" target="dQuYyNFEkMx4EJl-h9f4-8">
          <mxGeometry width="50" height="50" relative="1" as="geometry">
            <mxPoint x="375" y="240" as="sourcePoint" />
            <mxPoint x="375" y="210" as="targetPoint" />
            <Array as="points">
              <mxPoint x="420" y="270" />
            </Array>
          </mxGeometry>
        </mxCell>
        <mxCell id="dQuYyNFEkMx4EJl-h9f4-22" value="" style="endArrow=none;html=1;rounded=0;entryX=0.876;entryY=1.033;entryDx=0;entryDy=0;exitX=0.5;exitY=0;exitDx=0;exitDy=0;entryPerimeter=0;" edge="1" parent="WIyWlLk6GJQsqaUBKTNV-1" source="dQuYyNFEkMx4EJl-h9f4-9" target="dQuYyNFEkMx4EJl-h9f4-7">
          <mxGeometry width="50" height="50" relative="1" as="geometry">
            <mxPoint x="385" y="250" as="sourcePoint" />
            <mxPoint x="385" y="220" as="targetPoint" />
            <Array as="points" />
          </mxGeometry>
        </mxCell>
        <mxCell id="dQuYyNFEkMx4EJl-h9f4-24" value="" style="endArrow=none;html=1;rounded=0;exitX=0.786;exitY=0.042;exitDx=0;exitDy=0;exitPerimeter=0;entryX=0.5;entryY=1;entryDx=0;entryDy=0;" edge="1" parent="WIyWlLk6GJQsqaUBKTNV-1" source="dQuYyNFEkMx4EJl-h9f4-13" target="dQuYyNFEkMx4EJl-h9f4-7">
          <mxGeometry width="50" height="50" relative="1" as="geometry">
            <mxPoint x="360" y="270" as="sourcePoint" />
            <mxPoint x="410" y="220" as="targetPoint" />
          </mxGeometry>
        </mxCell>
        <mxCell id="dQuYyNFEkMx4EJl-h9f4-26" value="mãe" style="whiteSpace=wrap;html=1;align=center;" vertex="1" parent="WIyWlLk6GJQsqaUBKTNV-1">
          <mxGeometry x="200" y="370" width="115" height="60" as="geometry" />
        </mxCell>
        <mxCell id="dQuYyNFEkMx4EJl-h9f4-27" value="" style="fontSize=12;html=1;endArrow=ERmany;startArrow=ERmany;rounded=0;exitX=0.559;exitY=-0.05;exitDx=0;exitDy=0;exitPerimeter=0;entryX=0.074;entryY=1.006;entryDx=0;entryDy=0;entryPerimeter=0;" edge="1" parent="WIyWlLk6GJQsqaUBKTNV-1" source="dQuYyNFEkMx4EJl-h9f4-26" target="dQuYyNFEkMx4EJl-h9f4-7">
          <mxGeometry width="100" height="100" relative="1" as="geometry">
            <mxPoint x="460" y="330" as="sourcePoint" />
            <mxPoint x="560" y="230" as="targetPoint" />
          </mxGeometry>
        </mxCell>
        <mxCell id="dQuYyNFEkMx4EJl-h9f4-28" value="matricula de nascimento" style="ellipse;whiteSpace=wrap;html=1;align=center;fontStyle=4;" vertex="1" parent="WIyWlLk6GJQsqaUBKTNV-1">
          <mxGeometry x="160" y="150" width="100" height="40" as="geometry" />
        </mxCell>
        <mxCell id="dQuYyNFEkMx4EJl-h9f4-29" value="" style="endArrow=none;html=1;rounded=0;entryX=0.772;entryY=0.919;entryDx=0;entryDy=0;entryPerimeter=0;exitX=0;exitY=0.25;exitDx=0;exitDy=0;" edge="1" parent="WIyWlLk6GJQsqaUBKTNV-1" source="dQuYyNFEkMx4EJl-h9f4-7" target="dQuYyNFEkMx4EJl-h9f4-28">
          <mxGeometry width="50" height="50" relative="1" as="geometry">
            <mxPoint x="430" y="240" as="sourcePoint" />
            <mxPoint x="480" y="190" as="targetPoint" />
          </mxGeometry>
        </mxCell>
        <mxCell id="dQuYyNFEkMx4EJl-h9f4-30" value="nome" style="ellipse;whiteSpace=wrap;html=1;align=center;" vertex="1" parent="WIyWlLk6GJQsqaUBKTNV-1">
          <mxGeometry x="280" y="460" width="55" height="40" as="geometry" />
        </mxCell>
        <mxCell id="dQuYyNFEkMx4EJl-h9f4-32" value="endereço" style="ellipse;shape=doubleEllipse;margin=3;whiteSpace=wrap;html=1;align=center;" vertex="1" parent="WIyWlLk6GJQsqaUBKTNV-1">
          <mxGeometry x="350" y="440" width="80" height="30" as="geometry" />
        </mxCell>
        <mxCell id="dQuYyNFEkMx4EJl-h9f4-33" value="telefone" style="ellipse;whiteSpace=wrap;html=1;align=center;" vertex="1" parent="WIyWlLk6GJQsqaUBKTNV-1">
          <mxGeometry x="120" y="440" width="55" height="40" as="geometry" />
        </mxCell>
        <mxCell id="dQuYyNFEkMx4EJl-h9f4-34" value="data de nascimento" style="ellipse;whiteSpace=wrap;html=1;align=center;" vertex="1" parent="WIyWlLk6GJQsqaUBKTNV-1">
          <mxGeometry x="170" y="470" width="85" height="50" as="geometry" />
        </mxCell>
        <mxCell id="dQuYyNFEkMx4EJl-h9f4-35" value="cpf" style="ellipse;whiteSpace=wrap;html=1;align=center;fontStyle=4;" vertex="1" parent="WIyWlLk6GJQsqaUBKTNV-1">
          <mxGeometry x="75" y="380" width="100" height="40" as="geometry" />
        </mxCell>
        <mxCell id="dQuYyNFEkMx4EJl-h9f4-36" value="" style="endArrow=none;html=1;rounded=0;exitX=0.988;exitY=0.308;exitDx=0;exitDy=0;exitPerimeter=0;" edge="1" parent="WIyWlLk6GJQsqaUBKTNV-1" source="dQuYyNFEkMx4EJl-h9f4-33">
          <mxGeometry width="50" height="50" relative="1" as="geometry">
            <mxPoint x="150" y="470" as="sourcePoint" />
            <mxPoint x="200" y="420" as="targetPoint" />
          </mxGeometry>
        </mxCell>
        <mxCell id="dQuYyNFEkMx4EJl-h9f4-37" value="" style="endArrow=none;html=1;rounded=0;entryX=1;entryY=0.5;entryDx=0;entryDy=0;exitX=0.246;exitY=0.033;exitDx=0;exitDy=0;exitPerimeter=0;" edge="1" parent="WIyWlLk6GJQsqaUBKTNV-1" source="dQuYyNFEkMx4EJl-h9f4-32" target="dQuYyNFEkMx4EJl-h9f4-26">
          <mxGeometry width="50" height="50" relative="1" as="geometry">
            <mxPoint x="460" y="380" as="sourcePoint" />
            <mxPoint x="510" y="330" as="targetPoint" />
          </mxGeometry>
        </mxCell>
        <mxCell id="dQuYyNFEkMx4EJl-h9f4-38" value="" style="endArrow=none;html=1;rounded=0;exitX=0.5;exitY=1;exitDx=0;exitDy=0;entryX=0.624;entryY=0.058;entryDx=0;entryDy=0;entryPerimeter=0;" edge="1" parent="WIyWlLk6GJQsqaUBKTNV-1" source="dQuYyNFEkMx4EJl-h9f4-26" target="dQuYyNFEkMx4EJl-h9f4-34">
          <mxGeometry width="50" height="50" relative="1" as="geometry">
            <mxPoint x="460" y="380" as="sourcePoint" />
            <mxPoint x="510" y="330" as="targetPoint" />
          </mxGeometry>
        </mxCell>
        <mxCell id="dQuYyNFEkMx4EJl-h9f4-39" value="" style="endArrow=none;html=1;rounded=0;exitX=0.5;exitY=0;exitDx=0;exitDy=0;entryX=0.75;entryY=1;entryDx=0;entryDy=0;" edge="1" parent="WIyWlLk6GJQsqaUBKTNV-1" source="dQuYyNFEkMx4EJl-h9f4-30" target="dQuYyNFEkMx4EJl-h9f4-26">
          <mxGeometry width="50" height="50" relative="1" as="geometry">
            <mxPoint x="460" y="380" as="sourcePoint" />
            <mxPoint x="510" y="330" as="targetPoint" />
          </mxGeometry>
        </mxCell>
        <mxCell id="dQuYyNFEkMx4EJl-h9f4-40" value="" style="endArrow=none;html=1;rounded=0;entryX=1;entryY=0.5;entryDx=0;entryDy=0;exitX=0;exitY=0.5;exitDx=0;exitDy=0;" edge="1" parent="WIyWlLk6GJQsqaUBKTNV-1" source="dQuYyNFEkMx4EJl-h9f4-26" target="dQuYyNFEkMx4EJl-h9f4-35">
          <mxGeometry width="50" height="50" relative="1" as="geometry">
            <mxPoint x="460" y="380" as="sourcePoint" />
            <mxPoint x="510" y="330" as="targetPoint" />
          </mxGeometry>
        </mxCell>
        <mxCell id="dQuYyNFEkMx4EJl-h9f4-41" value="medicos" style="whiteSpace=wrap;html=1;align=center;" vertex="1" parent="WIyWlLk6GJQsqaUBKTNV-1">
          <mxGeometry x="10" y="10" width="115" height="60" as="geometry" />
        </mxCell>
        <mxCell id="dQuYyNFEkMx4EJl-h9f4-42" value="" style="fontSize=12;html=1;endArrow=ERmany;startArrow=ERmany;rounded=0;exitX=0.446;exitY=-0.006;exitDx=0;exitDy=0;exitPerimeter=0;entryX=0.074;entryY=1.006;entryDx=0;entryDy=0;entryPerimeter=0;" edge="1" parent="WIyWlLk6GJQsqaUBKTNV-1" source="dQuYyNFEkMx4EJl-h9f4-1">
          <mxGeometry width="100" height="100" relative="1" as="geometry">
            <mxPoint x="59.5" y="177" as="sourcePoint" />
            <mxPoint x="75.5" y="70" as="targetPoint" />
          </mxGeometry>
        </mxCell>
        <mxCell id="dQuYyNFEkMx4EJl-h9f4-44" value="CRM" style="ellipse;whiteSpace=wrap;html=1;align=center;fontStyle=4;" vertex="1" parent="WIyWlLk6GJQsqaUBKTNV-1">
          <mxGeometry x="140" y="10" width="100" height="40" as="geometry" />
        </mxCell>
        <mxCell id="dQuYyNFEkMx4EJl-h9f4-45" value="NOME" style="ellipse;whiteSpace=wrap;html=1;align=center;" vertex="1" parent="WIyWlLk6GJQsqaUBKTNV-1">
          <mxGeometry x="50" y="-60" width="100" height="40" as="geometry" />
        </mxCell>
        <mxCell id="dQuYyNFEkMx4EJl-h9f4-46" value="CPF" style="ellipse;whiteSpace=wrap;html=1;align=center;fontStyle=4;" vertex="1" parent="WIyWlLk6GJQsqaUBKTNV-1">
          <mxGeometry x="-120" y="20" width="100" height="40" as="geometry" />
        </mxCell>
        <mxCell id="dQuYyNFEkMx4EJl-h9f4-47" value="" style="endArrow=none;html=1;rounded=0;entryX=1;entryY=0.5;entryDx=0;entryDy=0;exitX=0.213;exitY=0.915;exitDx=0;exitDy=0;exitPerimeter=0;" edge="1" parent="WIyWlLk6GJQsqaUBKTNV-1" source="dQuYyNFEkMx4EJl-h9f4-44" target="dQuYyNFEkMx4EJl-h9f4-41">
          <mxGeometry width="50" height="50" relative="1" as="geometry">
            <mxPoint x="170" y="60" as="sourcePoint" />
            <mxPoint x="220" y="10" as="targetPoint" />
          </mxGeometry>
        </mxCell>
        <mxCell id="dQuYyNFEkMx4EJl-h9f4-48" value="" style="endArrow=none;html=1;rounded=0;exitX=0.576;exitY=0.031;exitDx=0;exitDy=0;exitPerimeter=0;" edge="1" parent="WIyWlLk6GJQsqaUBKTNV-1" source="dQuYyNFEkMx4EJl-h9f4-41">
          <mxGeometry width="50" height="50" relative="1" as="geometry">
            <mxPoint x="42.5" y="30" as="sourcePoint" />
            <mxPoint x="100" y="-20" as="targetPoint" />
          </mxGeometry>
        </mxCell>
        <mxCell id="dQuYyNFEkMx4EJl-h9f4-49" value="" style="endArrow=none;html=1;rounded=0;entryX=1;entryY=0.5;entryDx=0;entryDy=0;exitX=-0.016;exitY=0.694;exitDx=0;exitDy=0;exitPerimeter=0;" edge="1" parent="WIyWlLk6GJQsqaUBKTNV-1" source="dQuYyNFEkMx4EJl-h9f4-41" target="dQuYyNFEkMx4EJl-h9f4-46">
          <mxGeometry width="50" height="50" relative="1" as="geometry">
            <mxPoint x="170" y="60" as="sourcePoint" />
            <mxPoint x="220" y="10" as="targetPoint" />
          </mxGeometry>
        </mxCell>
        <mxCell id="dQuYyNFEkMx4EJl-h9f4-50" value="" style="fontSize=12;html=1;endArrow=ERmany;startArrow=ERmany;rounded=0;exitX=0.015;exitY=0.605;exitDx=0;exitDy=0;exitPerimeter=0;entryX=1;entryY=0.5;entryDx=0;entryDy=0;" edge="1" parent="WIyWlLk6GJQsqaUBKTNV-1" source="dQuYyNFEkMx4EJl-h9f4-7" target="dQuYyNFEkMx4EJl-h9f4-1">
          <mxGeometry width="100" height="100" relative="1" as="geometry">
            <mxPoint x="274" y="377" as="sourcePoint" />
            <mxPoint x="290" y="270" as="targetPoint" />
          </mxGeometry>
        </mxCell>
      </root>
    </mxGraphModel>
  </diagram>
</mxfile>
